<svg id="Layer_1" data-name="Layer 1" xmlns="http://www.w3.org/2000/svg" width="90" height="90" viewBox="0 0 90 90">
  <defs>
    <style>
      .cls-1 {
        fill: #fa5c00;
      }
    </style>
  </defs>
  <g>
    <path class="cls-1" d="M84.37,21.23a1.62,1.62,0,0,0-1.61,1.62V31H52.29a18.82,18.82,0,0,0-29.87-4.88c-.44-.2-.89-.38-1.36-.54a13.89,13.89,0,0,0-10.6.73,13.67,13.67,0,0,0-7,8A14.32,14.32,0,0,0,3.9,44.79a12.79,12.79,0,0,0,7,6.65A19.89,19.89,0,0,0,12,55.5a19.52,19.52,0,0,0,4.08,6.25A18.46,18.46,0,0,0,33,66.64L37.4,71a1.33,1.33,0,0,0,.92.37h4.82V76a1.31,1.31,0,0,0,1.31,1.31h4.82V82a1.35,1.35,0,0,0,.43,1L53.06,86a1.32,1.32,0,0,0,.88.35H64a1.32,1.32,0,0,0,1.32-1.32V75.42a1.33,1.33,0,0,0-.39-.93L45.86,55.4a18.63,18.63,0,0,0,6.43-7.14h5.16a1.31,1.31,0,0,0,.93-.39l3.45-3.45,3.45,3.45a1.31,1.31,0,0,0,.93.39h4.67a1.32,1.32,0,0,0,0-2.63H66.76l-4-4a1.3,1.3,0,0,0-1.86,0l-4,4H51.46a1.33,1.33,0,0,0-1.2.77,16.15,16.15,0,0,1-14.72,9.45,17.28,17.28,0,0,1-6.49-1.35,16.32,16.32,0,0,1-9.72-14.86,16,16,0,0,1,.57-4.18h0a16.19,16.19,0,0,1,3.06-6,10.44,10.44,0,0,1,4,5.18A5.7,5.7,0,1,0,29.7,34h-.16a13.21,13.21,0,0,0-.88-2,13.38,13.38,0,0,0-3.86-4.38,16.15,16.15,0,0,1,25.45,5.32,1.49,1.49,0,0,0,.18.3,1.37,1.37,0,0,0,.17.17,1.34,1.34,0,0,0,.85.33H82.76V56.44a1.61,1.61,0,0,0,3.22,0V22.85A1.62,1.62,0,0,0,84.37,21.23ZM32.77,39.64a3.07,3.07,0,1,1-5.13-2.25,15.61,15.61,0,0,1,.16,2.31A1.33,1.33,0,0,0,29.11,41h0a1.31,1.31,0,0,0,1.31-1.31,18.28,18.28,0,0,0-.22-3.09A3.06,3.06,0,0,1,32.77,39.64ZM28.05,56.93a20,20,0,0,0,7.49,1.55,18.89,18.89,0,0,0,7.94-1.76l0,.06L62.71,76v7.78H54.45L51.9,81.41V76a1.32,1.32,0,0,0-1.31-1.32H45.77V70a1.32,1.32,0,0,0-1.32-1.32h-5.6l-4.58-4.44A1.32,1.32,0,0,0,33,63.93a15.86,15.86,0,0,1-15.1-4,16.66,16.66,0,0,1-3.5-5.38A15.67,15.67,0,0,1,16.74,39c0,.21,0,.43,0,.64A19,19,0,0,0,28.05,56.93ZM17.43,34.51c-.47.39-.87.79-1.36,1.28a18.27,18.27,0,0,0-5.31,12.67A10.1,10.1,0,0,1,6.3,43.7,11.67,11.67,0,0,1,6,35.16a11,11,0,0,1,5.65-6.46,11.18,11.18,0,0,1,8.6-.59l.35.13A19.08,19.08,0,0,0,17.43,34.51Z"/>
    <path class="cls-1" d="M78.85,45.54h-2.8a1.47,1.47,0,0,0,0,2.93h2.8a1.47,1.47,0,0,0,0-2.93Z"/>
  </g>
</svg>
