<?xml version="1.0" encoding="UTF-8"?>
<!-- Generator: Adobe Illustrator 24.0.2, SVG Export Plug-In . SVG Version: 6.00 Build 0)  -->
<svg version="1.1" id="Layer_1" xmlns="http://www.w3.org/2000/svg" xmlns:xlink="http://www.w3.org/1999/xlink" x="0px" y="0px" viewBox="0 0 280.95 138.22" style="enable-background:new 0 0 280.95 138.22;" xml:space="preserve">
<style type="text/css">
	.st0{fill:#10869E;}
	.st1{fill:#1A365A;}
</style>
<g>
	<path class="st0" d="M56.72,138.23h17.11V69.11H56.72l-19.85,35.96L17.11,69.11h0H0v0v69.11h17.11v-36.09l19.85,35.96l19.76-35.96   V138.23z M203.67,138.22v-25.96V86.39h-15.69v28.49c0,8.22-4.45,10.55-8.98,10.55c-8.41,0-8.41-6.81-8.41-10.36V86.39h-21.84V69.12   h-15.69v17.27h-22.12v28.49c0,8.22-4.44,10.55-8.98,10.55c-8.42,0-8.42-6.81-8.42-10.36V86.39H77.85v31.01   c0,7.1,0.57,10.84,4.73,15.97c4.64,5.79,12.2,6.54,15.41,6.54c3.97,0,10.4-0.56,13.61-7.19h0.19v5.51h14.84V98.16h6.43v40.07h15.69   V98.16h6.15v19.24c0,7.1,0.57,10.84,4.73,15.97c4.63,5.79,12.2,6.54,15.41,6.54c3.97,0,10.4-0.56,13.62-7.19h0.18v5.51H203.67z    M245.55,112.26c0,5.04-3.31,13.26-13.15,13.26c-9.45,0-13.04-8.22-13.04-13.08c0-5.89,3.97-13.35,12.95-13.35   C241.2,99.09,245.55,106,245.55,112.26 M245.55,138.22h15.69V86.39h-15.69v5.51h-0.19c-1.9-3.18-6.71-7.29-15.32-7.29   c-13.99,0-26.38,10.65-26.38,27.65c0,14.85,9.74,27.74,26.38,27.74c6.14,0,12.67-2.33,15.32-7.38h0.19V138.22z M280.95,69.11   h-15.69v69.11h15.69V69.11z"/>
	<path class="st1" d="M36.87,23.63c0,8.31-7.75,8.31-11.16,8.31h-8.6V15.51h7.94C28.93,15.51,36.87,15.51,36.87,23.63 M53.98,23.35   c0-7.01-2.74-13.82-8.23-18.31C41.97,1.96,37.15,0,24.2,0H0v69.11h17.11V47.45h9.07c10.87,0,15.6-1.96,20.42-5.98   C51.05,37.74,53.98,30.36,53.98,23.35 M92.81,43.15c0,7.57-5.76,13.08-12.57,13.08c-6.81,0-12.57-5.51-12.57-13.08   c0-7.56,5.77-13.07,12.57-13.07C87.05,30.08,92.81,35.59,92.81,43.15 M108.51,43.15c0-12.7-9.17-27.55-28.27-27.55   c-19.1,0-28.27,14.85-28.27,27.55c0,12.7,9.17,27.55,28.27,27.55C99.34,70.7,108.51,55.85,108.51,43.15 M110.93,69.11h15.7V0h-15.7   V69.11z M133.05,11.77h15.69L148.73,0h-15.7L133.05,11.77z M133.05,69.11h15.69V17.28h-15.69V69.11z M246.12,37.46H222.3   c0.66-3.08,3.78-8.88,11.91-8.88C242.34,28.58,245.45,34.37,246.12,37.46 M261.81,43.81c0-15.78-11.72-28.3-27.7-28.3   c-15.97,0-27.51,13.35-27.51,27.83c0,2.1,0.26,4.12,0.7,6.07h-15.95c-1.71,3.18-4.82,6.91-11.35,6.91   c-7.46,0-12.48-5.6-12.48-13.17c0-7.47,5.01-13.54,12.48-13.17c6.52,0,9.64,3.74,11.35,7.28h15.88   c-2.65-12.7-13.9-21.76-27.8-21.76c-15.69,0-27.7,12.33-27.7,27.55c0,15.41,12.19,27.74,28.07,27.74c14.16,0,24.65-9.59,27.5-21.34   c2.85,12.36,14.11,21.34,27.08,21.34c5.39,0,10.59-1.58,14.93-4.67c4.44-2.99,8.13-7.47,10.68-13.26h-16.07   c-2.17,2.71-4.73,4.86-9.55,4.86c-6.15,0-11.34-3.64-12.29-9.81h39.32C261.62,46.7,261.81,45.86,261.81,43.81"/>
</g>
</svg>